<svg t="1630723745922" class="icon" viewBox="0 0 1024 1024" version="1.1" xmlns="http://www.w3.org/2000/svg" p-id="3393" width="200" height="200"><path d="M849.026577 713.638658l-75.872215-98.963759 69.274631-73.67302-34.087516-36.286711-122.055303 86.868188-87.967785 127.553288 32.98792 35.187114 71.473825-71.473825 104.461745 80.270604c0 30.788725 23.091544 56.079463 53.880269 56.079463 28.58953 0 52.780671-24.191141 52.780671-53.880268 0-28.58953-24.191141-52.780671-52.780671-52.780672-4.398389 0-7.697181 1.099597-12.095571 1.099598z m-19.792751 29.689127c2.199195-4.398389 6.597584-7.697181 9.896375-9.896376 25.290738-16.49396 60.477852 1.099597 60.477853 31.888323 0 21.991946-17.593557 39.585503-38.485906 39.585503-31.888322 0-50.581477-36.286711-31.888322-61.57745zM310.223893 549.798658l43.983892 27.489933 30.788725 47.282684 126.453691-123.154899 127.553289 123.154899 30.788725-47.282684 43.983892-27.489933-116.557315-130.852081 227.616644-221.01906L913.902819 0 718.174497 87.967785 511.450201 321.082416 305.825503 87.967785 110.097181 0l89.067383 197.927517 227.616644 221.01906zM174.973423 713.638658l75.872215-98.963759-69.274631-73.67302 34.087516-36.286711 122.055303 86.868188 87.967785 127.553288-32.98792 35.187114-71.473825-71.473825-104.461745 80.270604c0 30.788725-23.091544 56.079463-53.880269 56.079463-28.58953 0-52.780671-24.191141-52.780671-53.880268 0-28.58953 24.191141-52.780671 52.780671-52.780672 4.398389 0 7.697181 1.099597 12.095571 1.099598z m19.792751 29.689127c-3.298792-4.398389-6.597584-7.697181-9.896375-9.896376-26.390336-16.49396-60.477852 1.099597-60.477853 31.888323 0 21.991946 17.593557 39.585503 38.485906 39.585503 31.888322 0 50.581477-36.286711 31.888322-61.57745z" fill="#2c2c2c" p-id="3394"></path></svg>
